<svg version="1.1" viewBox="0.0 0.0 258.6010498687664 229.13910761154855" fill="none" stroke="none" stroke-linecap="square" stroke-miterlimit="10" xmlns:xlink="http://www.w3.org/1999/xlink" xmlns="http://www.w3.org/2000/svg"><clipPath id="p.0"><path d="m0 0l258.60104 0l0 229.13911l-258.60104 0l0 -229.13911z" clip-rule="nonzero"/></clipPath><g clip-path="url(#p.0)"><path fill="#000000" fill-opacity="0.0" d="m0 0l258.60104 0l0 229.13911l-258.60104 0z" fill-rule="evenodd"/><path fill="#000000" d="m0.92923886 114.21984l56.62992 -113.25979l142.74016 0l56.629913 113.25979l-56.629913 113.25979l-142.74016 0z" fill-rule="evenodd"/><path stroke="#000000" stroke-width="1.0" stroke-linejoin="round" stroke-linecap="butt" d="m0.92923886 114.21984l56.62992 -113.25979l142.74016 0l56.629913 113.25979l-56.629913 113.25979l-142.74016 0z" fill-rule="evenodd"/><path fill="#000000" fill-opacity="0.0" d="m0 -14.4l258.61417 0l0 229.13385l-258.61417 0z" fill-rule="evenodd"/><path fill="#b3b3b3" d="m79.89294 171.78131q-0.375 0 -0.765625 0q-0.375 0 -0.890625 -0.140625q-9.609375 -1.90625 -14.734375 -5.375q-5.109375 -3.453125 -7.03125 -8.3125q-1.921875 -4.859375 -1.921875 -11.015625l0.265625 -12.28125q0 -4.859375 -1.484375 -8.312508q-1.46875 -3.46875 -4.21875 -5.3125q-2.75 -1.859375 -6.71875 -2.0l-0.640625 0q-2.046875 0 -3.515625 -1.40625q-1.46875 -1.40625 -1.46875 -3.578125q0 -2.171875 1.46875 -3.578125q1.46875 -1.40625 3.515625 -1.40625l0.765625 0q3.96875 -0.265625 6.71875 -2.046875q2.765625 -1.796875 4.171875 -5.25q1.40625 -3.46875 1.40625 -8.328125l-0.265625 -12.28125q0 -5.0 1.28125 -9.03125q1.28125 -4.03125 4.03125 -6.96875q2.75 -2.953125 7.296875 -5.125q4.546875 -2.171875 11.078125 -3.578125q3.203125 -0.640625 4.671875 0.953125q1.46875 1.59375 1.46875 3.78125q0 1.40625 -1.03125 2.625q-1.015625 1.203125 -2.671875 1.71875q-6.015625 2.046875 -9.03125 4.296875q-3.015625 2.234375 -4.046875 5.375q-1.015625 3.125 -1.015625 7.734375l0.265625 12.421875q0 7.546875 -3.53125 12.296875q-3.515625 4.734375 -9.78125 6.640625l0 -0.5q6.265625 1.90625 9.78125 6.65625q3.53125 4.734375 3.53125 12.281258l-0.265625 12.421875q0 4.46875 1.015625 7.609375q1.03125 3.140625 4.046875 5.375q3.015625 2.25 9.03125 4.421875q3.828125 1.40625 3.703125 4.734375q0 1.796875 -1.34375 3.140625q-1.34375 1.34375 -3.140625 1.34375zm57.214394 -115.32813q11.78125 0 17.859375 5.765625q6.078125 5.75 6.078125 16.75q0 5.765625 -2.75 10.4375q-2.75 4.671875 -8.0625 7.359375q-5.3125 2.6875 -13.25 2.8125l0.265625 -4.734375q4.21875 0 9.140625 1.15625q4.9375 1.15625 9.28125 3.96875q4.359375 2.8125 7.171875 7.625q2.8125 4.796875 2.8125 11.953125q0 7.8125 -2.5625 13.000008q-2.546875 5.1875 -6.78125 8.125q-4.21875 2.9375 -9.28125 4.15625q-5.046875 1.21875 -9.921875 1.21875l-32.765633 0q-2.6875 0 -4.609375 -1.859375q-1.90625 -1.859375 -1.90625 -4.671875l0 -76.54688q0 -2.8125 1.90625 -4.65625q1.921875 -1.859375 4.609375 -1.859375l32.765633 0zm-1.78125 12.53125l-25.218758 0l1.53125 -2.046875l0 27.53125l-1.40625 -1.40625l25.343758 0q4.609375 -0.140625 8.125 -3.140625q3.53125 -3.015625 3.53125 -8.90625q0 -6.015625 -3.203125 -9.015625q-3.203125 -3.015625 -8.703125 -3.015625zm0.890625 36.609375l-25.468758 0l0.890625 -0.890625l0 30.203133l-1.015625 -1.140625l26.359383 0q6.65625 0 10.75 -3.515625q4.109375 -3.5312576 4.109375 -10.703133q0 -6.015625 -2.4375 -8.953125q-2.4375 -2.953125 -6.015625 -3.96875q-3.578125 -1.03125 -7.171875 -1.03125zm42.368256 66.18751q-2.171875 0 -3.265625 -1.796875q-1.078125 -1.796875 -1.078125 -3.203125q0 -1.53125 1.015625 -2.6875q1.03125 -1.15625 2.6875 -1.65625q6.140625 -2.046875 9.078125 -4.296875q2.953125 -2.234375 3.96875 -5.4375q1.03125 -3.203125 1.03125 -7.6875l-0.25 -12.40625q0 -7.6875076 3.578125 -12.359383q3.59375 -4.671875 9.734375 -6.59375l0 0.390625q-6.140625 -1.921875 -9.734375 -6.59375q-3.578125 -4.671875 -3.578125 -12.34375l0.25 -12.296875q0 -4.734375 -1.03125 -7.734375q-1.015625 -3.015625 -4.03125 -5.375q-3.0 -2.375 -9.015625 -4.296875q-3.84375 -1.40625 -3.703125 -4.859375q0.125 -1.796875 1.40625 -3.140625q1.28125 -1.34375 3.0625 -1.34375q0.390625 0 0.828125 0.0625q0.453125 0.0625 0.84375 0.0625q9.59375 1.921875 14.71875 5.375q5.125 3.453125 7.03125 8.390625q1.921875 4.921875 1.921875 10.9375l-0.25 12.421875q0 4.859375 1.46875 8.328125q1.46875 3.453125 4.28125 5.3125q2.828125 1.84375 6.671875 1.84375l0.640625 0q2.046875 0 3.515625 1.484375q1.46875 1.46875 1.46875 3.640625q0 2.171875 -1.46875 3.578125q-1.46875 1.40625 -3.515625 1.40625l-0.78125 0q-3.96875 0.125 -6.71875 1.984375q-2.75 1.859375 -4.15625 5.25q-1.40625 3.3906326 -1.40625 8.390633l0.25 12.28125q0 4.484375 -1.09375 8.25q-1.078125 3.78125 -3.703125 6.71875q-2.625 2.953125 -7.234375 5.375q-4.609375 2.4375 -11.640625 4.359375q-0.390625 0.125 -0.78125 0.1875q-0.375 0.078125 -1.015625 0.078125z" fill-rule="nonzero"/><path fill="#000000" fill-opacity="0.0" d="m200.29932 0.9600527l56.629913 113.25984" fill-rule="evenodd"/><path stroke="#000000" stroke-width="1.0" stroke-linejoin="round" stroke-linecap="butt" d="m200.29932 0.9600527l56.629913 113.25984" fill-rule="evenodd"/><path fill="#000000" fill-opacity="0.0" d="m201.02373 0.7710764l-143.46457 0.18897635" fill-rule="evenodd"/><path stroke="#000000" stroke-width="1.0" stroke-linejoin="round" stroke-linecap="butt" d="m201.02373 0.7710764l-143.46457 0.18897635" fill-rule="evenodd"/><path fill="#000000" fill-opacity="0.0" d="m57.55916 0.9600527l-56.62992 113.25984" fill-rule="evenodd"/><path stroke="#000000" stroke-width="1.0" stroke-linejoin="round" stroke-linecap="butt" d="m57.55916 0.9600527l-56.62992 113.25984" fill-rule="evenodd"/><path fill="#000000" fill-opacity="0.0" d="m1.0552231 114.53475l56.503937 112.94488" fill-rule="evenodd"/><path stroke="#000000" stroke-width="1.0" stroke-linejoin="round" stroke-linecap="butt" d="m1.0552231 114.53475l56.503937 112.94488" fill-rule="evenodd"/><path fill="#000000" fill-opacity="0.0" d="m57.811127 227.29065l142.48819 0.1889801" fill-rule="evenodd"/><path stroke="#000000" stroke-width="1.0" stroke-linejoin="round" stroke-linecap="butt" d="m57.811127 227.29065l142.48819 0.1889801" fill-rule="evenodd"/><path fill="#000000" fill-opacity="0.0" d="m200.23633 227.79465l56.6929 -113.57481" fill-rule="evenodd"/><path stroke="#000000" stroke-width="1.0" stroke-linejoin="round" stroke-linecap="butt" d="m200.23633 227.79465l56.6929 -113.57481" fill-rule="evenodd"/></g></svg>