<svg version="1.1" viewBox="0.0 0.0 230.0734908136483 260.2992125984252" fill="none" stroke="none" stroke-linecap="square" stroke-miterlimit="10" xmlns:xlink="http://www.w3.org/1999/xlink" xmlns="http://www.w3.org/2000/svg"><clipPath id="p.0"><path d="m0 0l230.07349 0l0 260.29922l-230.07349 0l0 -260.29922z" clip-rule="nonzero"/></clipPath><g clip-path="url(#p.0)"><path fill="#000000" fill-opacity="0.0" d="m0 0l230.07349 0l0 260.29922l-230.07349 0z" fill-rule="evenodd"/><path fill="#f8f9fa" d="m115.11822 2.1185303l113.25979 56.62992l0 142.74014l-113.25979 56.62993l-113.25979 -56.62993l0 -142.74014z" fill-rule="evenodd"/><path stroke="#000000" stroke-width="4.0" stroke-linejoin="round" stroke-linecap="butt" d="m115.11822 2.1185303l113.25979 56.62992l0 142.74014l-113.25979 56.62993l-113.25979 -56.62993l0 -142.74014z" fill-rule="evenodd"/><path fill="#000000" fill-opacity="0.0" d="m-13.811024 1.4986876l258.61417 0l0 229.13387l-258.61417 0z" fill-rule="evenodd"/><path fill="#007bff" d="m65.77518 187.68q-0.390625 0 -0.71875 -0.078125q-0.3125 -0.0625 -0.703125 -0.0625q-9.718754 -2.171875 -14.906254 -5.5625q-5.1875 -3.390625 -7.109375 -8.328125q-1.90625 -4.921875 -1.90625 -11.0625l0.125 -11.65625q0 -4.859375 -1.421875 -8.6875q-1.40625 -3.84375 -4.34375 -6.078125q-2.9375 -2.25 -7.546875 -2.25l-0.640625 0q-1.796875 0 -3.015625 -1.21875q-1.21875 -1.21875 -1.21875 -3.0q0 -1.796875 1.21875 -2.953125q1.21875 -1.15625 3.015625 -1.15625l0.765625 0q4.734375 -0.125 7.609375 -2.359375q2.890625 -2.234375 4.234375 -6.078125q1.34375 -3.84375 1.34375 -8.703125l-0.125 -11.53125q0 -5.625 1.53125 -9.71875q1.53125 -4.09375 4.46875 -6.90625q2.953125 -2.828125 7.359375 -4.875q4.421875 -2.046875 10.437504 -3.453125q2.953125 -0.640625 4.09375 0.765625q1.15625 1.40625 1.15625 2.953125q0 1.28125 -0.828125 2.3125q-0.828125 1.015625 -2.375 1.390625q-6.781254 2.171875 -10.234379 4.609375q-3.453125 2.4375 -4.671875 5.828125q-1.21875 3.390625 -1.21875 8.515625l0.125 11.515625q0 7.8125 -3.328125 13.0625q-3.328125 5.234375 -9.34375 6.90625l-0.125 -0.265625q6.28125 1.796875 9.53125 6.984375q3.265625 5.1875 3.265625 13.125l-0.125 11.390625q0 5.109375 1.15625 8.5q1.15625 3.40625 4.671875 5.828125q3.515625 2.4375 10.296879 4.609375q3.328125 1.15625 3.203125 4.21875q-0.125 1.28125 -1.15625 2.375q-1.015625 1.09375 -2.546875 1.09375z" fill-rule="nonzero"/><path fill="#434343" d="m123.50093 72.35187q11.265625 0 17.34375 5.828125q6.078125 5.8125 6.078125 16.4375q0 5.625 -2.5625 10.375q-2.5625 4.734375 -7.5 7.546875q-4.921875 2.8125 -12.078125 3.0625l-0.265625 -3.578125q4.484375 0 9.21875 1.28125q4.734375 1.28125 8.765625 4.09375q4.03125 2.8125 6.53125 7.421875q2.5 4.609375 2.5 11.390625q0 7.296875 -2.4375 12.234375q-2.4375 4.921875 -6.46875 7.9375q-4.03125 3.0 -8.953125 4.28125q-4.921875 1.28125 -9.921875 1.28125l-33.65625 0q-2.1875 0 -3.65625 -1.53125q-1.46875 -1.546875 -1.46875 -3.71875l0 -79.234375q0 -2.171875 1.46875 -3.640625q1.46875 -1.46875 3.65625 -1.46875l33.40625 0zm-1.546875 10.109375l-27.515625 0l1.53125 -2.3125l0 31.875l-1.40625 -1.65625l27.65625 0q5.625 0 9.65625 -3.640625q4.03125 -3.65625 4.03125 -10.828125q0 -6.40625 -3.71875 -9.921875q-3.703125 -3.515625 -10.234375 -3.515625zm1.03125 38.140625l-27.90625 0l0.890625 -0.890625l0 33.40625l-1.015625 -1.15625l28.40625 0q7.5625 0 12.359375 -3.828125q4.796875 -3.84375 4.796875 -11.921875q0 -6.265625 -2.5625 -9.65625q-2.546875 -3.390625 -6.59375 -4.671875q-4.03125 -1.28125 -8.375 -1.28125z" fill-rule="nonzero"/><path fill="#007bff" d="m165.10057 187.53937q-1.796875 0 -2.703125 -1.40625q-0.890625 -1.40625 -0.890625 -2.5625q0 -1.265625 0.890625 -2.234375q0.90625 -0.953125 2.3125 -1.46875q6.921875 -2.171875 10.3125 -4.546875q3.390625 -2.359375 4.59375 -5.828125q1.21875 -3.453125 1.21875 -8.578125l-0.125 -11.390625q0 -7.9375 3.390625 -13.171875q3.390625 -5.25 9.28125 -6.921875l0.125 0.390625q-6.140625 -1.921875 -9.46875 -7.109375q-3.328125 -5.1875 -3.328125 -12.984375l0.125 -11.53125q0 -5.109375 -1.15625 -8.5q-1.140625 -3.390625 -4.59375 -5.828125q-3.453125 -2.4375 -10.375 -4.609375q-3.328125 -1.15625 -3.203125 -4.09375q0.140625 -1.40625 1.15625 -2.421875q1.03125 -1.03125 2.5625 -1.03125q0.375 0 0.6875 0q0.328125 0 0.71875 0.125q9.859375 1.921875 14.96875 5.4375q5.125 3.515625 7.046875 8.390625q1.921875 4.859375 1.921875 11.125l-0.125 11.53125q0 4.984375 1.40625 8.828125q1.40625 3.84375 4.34375 6.015625q2.953125 2.171875 7.5625 2.296875l0.640625 0q1.78125 0 3.0 1.21875q1.21875 1.21875 1.21875 3.015625q0 1.65625 -1.21875 2.875q-1.21875 1.21875 -3.0 1.21875l-0.765625 0q-4.75 0 -7.625 2.234375q-2.875 2.234375 -4.21875 6.078125q-1.34375 3.84375 -1.34375 8.703125l0.125 11.65625q0 4.609375 -1.15625 8.1875q-1.15625 3.578125 -3.84375 6.453125q-2.6875 2.890625 -7.296875 5.3125q-4.59375 2.4375 -11.640625 5.0q-0.390625 0.125 -0.71875 0.125q-0.3125 0 -0.8125 0z" fill-rule="nonzero"/><g filter="url(#shadowFilter-p.1)"><use xlink:href="#p.1" transform="matrix(1.0 0.0 0.0 1.0 1.0000002402958907 0.0)"/></g><defs><filter id="shadowFilter-p.1" filterUnits="userSpaceOnUse"><feGaussianBlur in="SourceAlpha" stdDeviation="8.0" result="blur"/><feComponentTransfer in="blur" color-interpolation-filters="sRGB"><feFuncR type="linear" slope="0" intercept="1.0"/><feFuncG type="linear" slope="0" intercept="1.0"/><feFuncB type="linear" slope="0" intercept="1.0"/><feFuncA type="linear" slope="0.5" intercept="0"/></feComponentTransfer></filter></defs><g id="p.1"><path fill="#000000" fill-opacity="0.0" d="m-29.811024 15.47874l254.04724 0l0 201.79527l-254.04724 0z" fill-rule="evenodd"/><path fill="#434343" d="m158.13591 162.13138q-2.6875 0 -4.171875 -1.53125q-1.46875 -1.546875 -1.46875 -4.234375l0 -2.5625q0 -2.8125 1.46875 -4.34375q1.484375 -1.546875 4.171875 -1.546875l1.015625 0q2.828125 0 4.234375 1.546875q1.40625 1.53125 1.40625 4.34375l0 2.5625q0 2.6875 -1.40625 4.234375q-1.40625 1.53125 -4.234375 1.53125l-1.015625 0z" fill-rule="nonzero"/></g></g></svg>